<svg id="Layer_1" data-name="Layer 1" xmlns="http://www.w3.org/2000/svg" xmlns:xlink="http://www.w3.org/1999/xlink" viewBox="0 0 24 24"><defs><filter id="luminosity-noclip" x="7.44" y="2.96" width="13.67" height="13.6" filterUnits="userSpaceOnUse" color-interpolation-filters="sRGB"><feFlood flood-color="#fff" result="bg"/><feBlend in="SourceGraphic" in2="bg"/></filter><mask id="mask" x="7.44" y="2.96" width="13.67" height="13.6" maskUnits="userSpaceOnUse"><line x1="8.5" y1="15.5" x2="15.5" y2="8.5" style="fill:none;stroke:#000;stroke-miterlimit:10;stroke-width:3px;filter:url(#luminosity-noclip)"/></mask><filter id="luminosity-noclip-2" x="2.96" y="7.44" width="13.6" height="13.67" filterUnits="userSpaceOnUse" color-interpolation-filters="sRGB"><feFlood flood-color="#fff" result="bg"/><feBlend in="SourceGraphic" in2="bg"/></filter><mask id="mask-2" x="2.96" y="7.44" width="13.6" height="13.67" maskUnits="userSpaceOnUse"><line x1="8.5" y1="15.5" x2="15.5" y2="8.5" style="fill:none;stroke:#000;stroke-miterlimit:10;stroke-width:3px;filter:url(#luminosity-noclip-2)"/></mask></defs><g style="mask:url(#mask)"><path d="M15.12,11.61A2.1,2.1,0,0,1,13.63,11l-.55-.55a2.1,2.1,0,0,1,0-3l3.38-3.38a2.1,2.1,0,0,1,3,0l.55.55a2.09,2.09,0,0,1,0,3L16.61,11A2.06,2.06,0,0,1,15.12,11.61Z" style="fill:#fff"/><path d="M18,4a1.61,1.61,0,0,1,1.14.47l.55.55a1.62,1.62,0,0,1,0,2.28l-3.38,3.38a1.62,1.62,0,0,1-2.28,0l-.55-.55a1.62,1.62,0,0,1,0-2.28l3.38-3.38A1.61,1.61,0,0,1,18,4m0-1a2.61,2.61,0,0,0-1.85.77L12.73,7.1a2.62,2.62,0,0,0,0,3.7l.54.55a2.63,2.63,0,0,0,3.7,0L20.35,8a2.64,2.64,0,0,0,0-3.7l-.55-.54A2.61,2.61,0,0,0,18,3Z"/></g><g style="mask:url(#mask-2)"><path d="M6.12,20.61A2.1,2.1,0,0,1,4.63,20l-.55-.55a2.11,2.11,0,0,1,0-3l3.38-3.38a2.1,2.1,0,0,1,3,0l.55.55a2.09,2.09,0,0,1,0,3L7.61,20A2.06,2.06,0,0,1,6.12,20.61Z" style="fill:#fff"/><path d="M9,13a1.61,1.61,0,0,1,1.14.47l.55.55a1.62,1.62,0,0,1,0,2.28L7.26,19.64a1.62,1.62,0,0,1-2.28,0l-.55-.55a1.62,1.62,0,0,1,0-2.28l3.38-3.38A1.61,1.61,0,0,1,9,13m0-1a2.61,2.61,0,0,0-1.85.77L3.73,16.1a2.62,2.62,0,0,0,0,3.7l.54.55a2.63,2.63,0,0,0,3.7,0L11.35,17a2.64,2.64,0,0,0,0-3.7l-.55-.54A2.61,2.61,0,0,0,9,12Z"/></g><line x1="8.5" y1="15.5" x2="15.5" y2="8.5" style="fill:none;stroke:#000;stroke-miterlimit:10"/><line x1="7.5" y1="7.5" x2="1.5" y2="1.5" style="fill:none;stroke:#000;stroke-miterlimit:10"/><line x1="1.5" y1="6.5" x2="1.5" y2="1.5" style="fill:none;stroke:#000;stroke-miterlimit:10"/><line x1="6.5" y1="1.5" x2="1.5" y2="1.5" style="fill:none;stroke:#000;stroke-miterlimit:10"/><line x1="16.5" y1="16.5" x2="22.5" y2="22.5" style="fill:none;stroke:#000;stroke-miterlimit:10"/><line x1="22.5" y1="17.5" x2="22.5" y2="22.5" style="fill:none;stroke:#000;stroke-miterlimit:10"/><line x1="17.5" y1="22.5" x2="22.5" y2="22.5" style="fill:none;stroke:#000;stroke-miterlimit:10"/></svg>